<svg width="412" height="412" viewBox="0 0 412 412" fill="none" xmlns="http://www.w3.org/2000/svg">
<rect x="172.812" y="189" width="7" height="7" transform="rotate(15 172.812 189)" fill="black" fill-opacity="0.06"/>
<path d="M129 339L136 339L138 345L131 345L129 339Z" fill="black" fill-opacity="0.06"/>
<path d="M297.455 191.967L293.682 185.235L301.399 185.334L297.455 191.967Z" fill="black" fill-opacity="0.06"/>
<path d="M242.151 301.452L244.148 293.997L249.605 299.454L242.151 301.452Z" fill="black" fill-opacity="0.06"/>
<circle cx="149.5" cy="103.5" r="4.5" fill="black" fill-opacity="0.06"/>
<circle cx="20" cy="377" r="3" fill="black" fill-opacity="0.06"/>
<path d="M383 257L385.021 263.219H391.56L386.269 267.062L388.29 273.281L383 269.438L377.71 273.281L379.731 267.062L374.44 263.219H380.979L383 257Z" fill="black" fill-opacity="0.06"/>
<path d="M218.5 48.8L234.5 60.8" stroke="black" stroke-opacity="0.06" stroke-width="3"/>
<path d="M69 7.99999V20" stroke="black" stroke-opacity="0.06" stroke-width="3"/>
<path d="M328 108L331.327 127.721" stroke="black" stroke-opacity="0.06" stroke-width="3"/>
<path d="M351.5 34.5L351.5 29.4598L348.744 33.6798L340.744 45.9298L339.229 48.25H342H350H351.5L351.5 46.75L351.5 34.5Z" stroke="black" stroke-opacity="0.06" stroke-width="3"/>
<circle cx="136" cy="30" r="9.5" stroke="black" stroke-opacity="0.06" stroke-width="3"/>
<path d="M236.129 127.012L234.724 125.407L233.689 127.272L228.689 136.272L228.159 137.226L228.903 138.023L235.903 145.523L237.274 146.992L238.293 145.261L243.293 136.761L243.842 135.827L243.129 135.012L236.129 127.012Z" stroke="black" stroke-opacity="0.06" stroke-width="3"/>
<path d="M47 280.5H45.2293L45.5204 282.247L48.5204 300.247L48.7293 301.5H50H54.5H56.3198L55.9724 299.714L52.4724 281.714L52.2364 280.5H51H47Z" stroke="black" stroke-opacity="0.06" stroke-width="3"/>
<circle cx="362" cy="367" r="5.5" stroke="black" stroke-opacity="0.06" stroke-width="3"/>
<rect x="28.515" y="67.5249" width="11.5178" height="11.5178" transform="rotate(48.5442 28.515 67.5249)" stroke="black" stroke-opacity="0.06" stroke-width="3"/>
<path d="M76.5012 172.44L76.3602 175.965L78.9965 173.621L87.9965 165.621L89.6117 164.185L87.7018 163.174L79.2018 158.674L77.0964 157.56L77.0012 159.94L76.5012 172.44Z" stroke="black" stroke-opacity="0.06" stroke-width="3"/>
<path d="M230.417 362.502L227.253 362.678L229.394 365.014L234.894 371.014L236.32 372.569L237.321 370.711L240.821 364.211L242.09 361.854L239.417 362.002L230.417 362.502Z" stroke="black" stroke-opacity="0.06" stroke-width="3"/>
<path d="M304.218 248.945L303.679 248.267L302.823 248.394L295.072 249.546L294.216 249.673L293.898 250.479L291.02 257.767L290.702 258.572L291.241 259.251L296.113 265.387L296.652 266.065L297.509 265.938L305.259 264.786L306.116 264.658L306.434 263.853L309.311 256.565L309.629 255.759L309.091 255.081L304.218 248.945Z" stroke="black" stroke-opacity="0.06" stroke-width="3"/>
<path d="M393.985 175.545C392.134 170.341 386.416 167.623 381.212 169.474C376.009 171.325 373.291 177.044 375.141 182.247" stroke="black" stroke-opacity="0.06" stroke-width="3"/>
<path d="M341 338L326.939 324.061" stroke="black" stroke-opacity="0.06" stroke-width="3"/>
<line x1="112.021" y1="236.099" x2="98.0207" y2="249.099" stroke="black" stroke-opacity="0.06" stroke-width="3"/>
<line x1="19.1358" y1="138.494" x2="8.1358" y2="139.494" stroke="black" stroke-opacity="0.06" stroke-width="3"/>
<path d="M191 253V272H172" stroke="black" stroke-opacity="0.06" stroke-width="3"/>
</svg>
