<svg width="412" height="412" fill="none" xmlns="http://www.w3.org/2000/svg"><path d="m172.812 189 6.761 1.812-1.812 6.761-6.761-1.812 1.812-6.761ZM129 339h7l2 6h-7l-2-6ZM297.455 191.967l-3.773-6.732 7.717.099-3.944 6.633ZM242.151 301.452l1.997-7.455 5.457 5.457-7.454 1.998ZM154 103.5a4.5 4.5 0 1 1-9 0 4.5 4.5 0 0 1 9 0ZM23 377a3 3 0 1 1-6 0 3 3 0 0 1 6 0ZM383 257l2.021 6.219h6.539l-5.291 3.843 2.021 6.219-5.29-3.843-5.29 3.843 2.021-6.219-5.291-3.843h6.539L383 257Z" fill="#000" fill-opacity=".06"/><path d="M191 273.5h1.5V253h-3v17.5H172v3h19ZM217.6 50l16 12 1.8-2.4-16-12-1.8 2.4ZM67.5 8v12h3V8h-3Zm259.021 100.25 3.327 19.721 2.958-.499-3.327-19.722-2.958.5Zm50.034 73.494a8.5 8.5 0 0 1 16.017-5.697l2.826-1.005c-2.128-5.984-8.705-9.11-14.689-6.981-5.984 2.128-9.109 8.705-6.981 14.689l2.827-1.006Zm-34.499 155.191-14.061-13.94-2.112 2.131 14.061 13.939 2.112-2.13ZM111 235l-14 13 2.041 2.198 14-13L111 235Zm-92-98-11 1 .272 2.988 11-1L19 137ZM351.5 34.5v-5.04l-2.756 4.22-8 12.25-1.515 2.32H351.5V34.5Zm-115.371 92.512-1.405-1.605-1.035 1.865-5 9-.53.954.744.797 7 7.5 1.371 1.469 1.019-1.731 5-8.5.549-.934-.713-.815-7-8ZM47 280.5h-1.77l.29 1.747 3 18 .21 1.253h7.59l-.348-1.786-3.5-18-.236-1.214H47ZM29.508 68.65l-.993-1.125-1.124.993-6.384 5.64-1.124.992.993 1.124 5.639 6.384.993 1.124 1.124-.993 6.384-5.639 1.124-.993-.993-1.124-5.639-6.384Zm46.993 103.79-.14 3.525 2.635-2.344 9-8 1.616-1.436-1.91-1.011-8.5-4.5-2.106-1.114-.095 2.38-.5 12.5Zm153.916 190.062-3.164.176 2.141 2.336 5.5 6 1.426 1.555 1.001-1.858 3.5-6.5 1.269-2.357-2.673.148-9 .5Zm73.801-113.557-.539-.678-.856.127-7.751 1.152-.856.127-.318.806-2.878 7.288-.318.805.539.679 4.872 6.136.539.678.857-.127 7.75-1.152.857-.128.318-.805 2.877-7.288.318-.806-.538-.678-4.873-6.136ZM136 39.5a9.5 9.5 0 0 0 9.5-9.5 9.5 9.5 0 0 0-9.5-9.5 9.5 9.5 0 0 0-9.5 9.5 9.5 9.5 0 0 0 9.5 9.5Zm226 333a5.5 5.5 0 1 0 0-11 5.5 5.5 0 1 0 0 11Z" stroke="#000" stroke-opacity=".06" stroke-width="3"/></svg>