<svg width="412" height="412" fill="none" xmlns="http://www.w3.org/2000/svg"><path fill="#000" fill-opacity=".06" d="m172.812 189 6.761 1.812-1.811 6.761-6.762-1.812zM129 339h7l2 6h-7l-2-6ZM297.455 191.967l-3.773-6.732 7.717.099-3.944 6.633ZM242.151 301.452l1.997-7.455 5.457 5.457-7.454 1.998Z"/><circle cx="149.5" cy="103.5" r="4.5" fill="#000" fill-opacity=".06"/><circle cx="20" cy="377" r="3" fill="#000" fill-opacity=".06"/><path d="m383 257 2.021 6.219h6.539l-5.291 3.843 2.021 6.219-5.29-3.843-5.29 3.843 2.021-6.219-5.291-3.843h6.539L383 257Z" fill="#000" fill-opacity=".06"/><path d="m218.5 48.8 16 12M69 8v12M328 108l3.327 19.721M351.5 34.5v-5.04l-2.756 4.22-8 12.25-1.515 2.32H351.5V34.5Z" stroke="#000" stroke-opacity=".06" stroke-width="3"/><circle cx="136" cy="30" r="9.5" stroke="#000" stroke-opacity=".06" stroke-width="3"/><path d="m236.129 127.012-1.405-1.605-1.035 1.865-5 9-.53.954.744.797 7 7.5 1.371 1.469 1.019-1.731 5-8.5.549-.934-.713-.815-7-8ZM47 280.5h-1.77l.29 1.747 3 18 .21 1.253h7.59l-.348-1.786-3.5-18-.236-1.214H47Z" stroke="#000" stroke-opacity=".06" stroke-width="3"/><circle cx="362" cy="367" r="5.5" stroke="#000" stroke-opacity=".06" stroke-width="3"/><path stroke="#000" stroke-opacity=".06" stroke-width="3" d="m28.515 67.525 7.625 8.632-8.632 7.626-7.625-8.633zM76.501 172.44l-.14 3.525 2.635-2.344 9-8 1.616-1.436-1.91-1.011-8.5-4.5-2.106-1.114-.095 2.38-.5 12.5ZM230.417 362.502l-3.164.176 2.141 2.336 5.5 6 1.426 1.555 1.001-1.858 3.5-6.5 1.269-2.357-2.673.148-9 .5ZM304.218 248.945l-.539-.678-.856.127-7.751 1.152-.856.127-.318.806-2.878 7.288-.318.805.539.679 4.872 6.136.539.678.857-.127 7.75-1.152.857-.128.318-.805 2.877-7.288.318-.806-.538-.678-4.873-6.136ZM393.985 175.545c-1.851-5.204-7.569-7.922-12.773-6.071-5.203 1.851-7.921 7.57-6.071 12.773M341 338l-14.061-13.939M112.021 236.099l-14 13M19.136 138.494l-11 1M191 253v19h-19"/></svg>